<?xml version="1.0" encoding="UTF-8" standalone="no"?>
<!-- Created with Inkscape (http://www.inkscape.org/) -->

<svg
   xmlns:dc="http://purl.org/dc/elements/1.1/"
   xmlns:cc="http://creativecommons.org/ns#"
   xmlns:rdf="http://www.w3.org/1999/02/22-rdf-syntax-ns#"
   xmlns:svg="http://www.w3.org/2000/svg"
   xmlns="http://www.w3.org/2000/svg"
   xmlns:sodipodi="http://sodipodi.sourceforge.net/DTD/sodipodi-0.dtd"
   xmlns:inkscape="http://www.inkscape.org/namespaces/inkscape"
   id="svg4366"
   version="1.1"
   inkscape:version="0.91 r13725"
   width="2600"
   height="1201"
   viewBox="0 0 2600 1201"
   sodipodi:docname="clip_image.svg">
  <metadata
     id="metadata4372">
    <rdf:RDF>
      <cc:Work
         rdf:about="">
        <dc:format>image/svg+xml</dc:format>
        <dc:type
           rdf:resource="http://purl.org/dc/dcmitype/StillImage" />
        <dc:title></dc:title>
      </cc:Work>
    </rdf:RDF>
  </metadata>
  <defs
     id="defs4370" />
  <sodipodi:namedview
     pagecolor="#ffffff"
     bordercolor="#666666"
     borderopacity="1"
     objecttolerance="10"
     gridtolerance="10"
     guidetolerance="10"
     inkscape:pageopacity="0"
     inkscape:pageshadow="2"
     inkscape:window-width="1920"
     inkscape:window-height="1016"
     id="namedview4368"
     showgrid="false"
     inkscape:zoom="0.53884615"
     inkscape:cx="1162.6695"
     inkscape:cy="484.96195"
     inkscape:window-x="0"
     inkscape:window-y="27"
     inkscape:window-maximized="1"
     inkscape:current-layer="svg4366" />
  <path
     style="fill:#000000"
     d="m 1711.8558,952.91462 c -5.225,-0.59078 -31.325,-3.61151 -58,-6.71263 -26.675,-3.10112 -56.375,-6.49751 -66,-7.54746 -9.625,-1.05003 -21.775,-2.45882 -27,-3.13071 -5.225,-0.67189 -19.4,-2.30281 -31.5,-3.62426 -12.1,-1.32145 -42.25,-4.75493 -67,-7.62994 -24.75,-2.87508 -54.45,-6.28072 -66,-7.56811 -11.55,-1.2874 -55.425,-6.31351 -97.5,-11.16902 -42.075,-4.85558 -85.725,-9.88393 -97,-11.17403 -11.275,-1.29019 -42.325,-4.88159 -69,-7.98088 -26.675,-3.09936 -56.15,-6.4861 -65.5,-7.52609 -36.7065,-4.08303 -157.69231,-18.00988 -169.49998,-19.51135 -6.875,-0.87432 -18.125,-2.16076 -25,-2.85889 -6.875,-0.69814 -22.85,-2.51226 -35.5,-4.03128 -28.326,-3.40141 -73.13367,-8.5624 -96.5,-11.11485 -9.625,-1.05147 -25.15,-2.84374 -34.5,-3.98302 -9.35,-1.1392 -24.875,-2.94408 -34.5,-4.01094 -9.625,-1.06678 -37.75,-4.29424 -62.5,-7.17219 -24.75,-2.87788 -51.525,-5.94215 -59.5,-6.80945 -7.975,-0.8673 -25.075,-2.82388 -38,-4.34792 -48.5225,-5.72145 -85.91619,-9.98738 -98.5,-11.23713 l -13,-1.29098 -12,2.36965 c -6.6,1.30327 -21.675,4.36506 -33.5,6.80402 -31.27498,6.45054 -55.19303,11.36618 -74.5,15.31124 -9.35,1.91047 -24.875,5.08752 -34.5,7.06005 -23.75843,4.86906 -57.54139,11.7822 -80.5,16.47316 -10.45,2.13516 -26.875,5.49558 -36.5,7.46763 -9.625,1.97204 -27.175,5.55826 -39.000003,7.96946 -11.825,2.41121 -29.6,6.05597 -39.5,8.09956 -9.9,2.04351 -23.85,4.88558 -31,6.31574 -7.15,1.43008 -14.0124997,2.85722 -15.2499997,3.17123 l -2.25,0.57108 0,-441.99503 0,-441.99506279 4.75,0.47095468 c 2.6125,0.2590183 16.6749997,1.21046691 31.2499997,2.11432311 25.0205,1.5516212 76.629823,4.8796735 203.500003,13.122812 30.25,1.965428 80.2,5.20147 111,7.191201 30.8,1.989731 80.525,5.207827 110.5,7.151322 29.975,1.943503 61.025,3.926239 69,4.406095 7.975,0.479847 32.275,2.089597 54,3.57722 21.725,1.487614 49.4,3.287414 61.5,3.999545 12.1,0.712131 33.7,2.098411 48,3.080615 l 26,1.785827 73.5,-2.553414 c 40.425,-1.404386 86.1,-2.948111 101.5,-3.430511 15.4,-0.4824 63.775,-2.118925 107.49998,-3.636721 43.725,-1.517795 101.55,-3.506984 128.5,-4.420427 26.95,-0.913435 58.675,-2.000124 70.5,-2.414848 19.5848,-0.686887 50.2809,-1.702917 121,-4.005049 14.025,-0.456558 49.125,-1.700875 78,-2.765151 28.875,-1.064276 69.6,-2.493355 90.5,-3.175744 73.0181,-2.384021 110.2361,-3.643923 141.5,-4.790032 30.0622,-1.10205 50.7218,-1.777954 110,-3.598739 14.575,-0.447689 60.925,-2.048242 103,-3.5567936 42.075,-1.5085515 89.1,-3.1427635 104.5,-3.6315842 15.4,-0.4888208 74.125,-2.4566261 130.5,-4.37290681 56.375,-1.91628869 109.925,-3.70523379 119,-3.97545029 l 16.5,-0.4912853 20.5,1.2507692 c 11.275,0.6879239 36.475,2.30564175 56,3.5949427 19.525,1.2892929 42.25,2.7284935 50.5,3.1982119 8.25,0.4697264 37.05,2.2669983 64,3.9939466 88.4677,5.6689868 189.2953,11.9613808 191.75,11.9666368 l 1.75,0.004 0,350.019079 0,350.0191 -51.25,13.65463 c -74.4253,19.82935 -252.4396,67.35653 -430.75,115.00393 -85.525,22.85367 -209.275,55.89252 -275,73.41962 l -119.5,31.86751 -2,-0.0953 c -1.1,-0.0526 -6.275,-0.57881 -11.5,-1.16967 z"
     id="path4382"
     inkscape:connector-curvature="0" />
  <path
     style="fill:#000000"
     d=""
     id="path4378"
     inkscape:connector-curvature="0" />
  <path
     style="fill:#000000"
     d=""
     id="path4376"
     inkscape:connector-curvature="0" />
</svg>
