<svg id="svg2" xmlns:rdf="http://www.w3.org/1999/02/22-rdf-syntax-ns#" xmlns="http://www.w3.org/2000/svg" version="1.1" xmlns:cc="http://creativecommons.org/ns#" xmlns:dc="http://purl.org/dc/elements/1.1/" viewBox="0 0 137 53">
 <title id="title4">65356CBE-DFF7-43DF-A182-967DAE328B9A</title>
 <desc id="desc6">Created with sketchtool.</desc>
 <g id="Typo" fill-rule="evenodd" transform="translate(101 6.42)" fill="#ffffff">
  <path id="Fill-2" d="m31.6 37.3c-0.912 0.992-2.1 1.49-3.58 1.49h-2.21v-10.4h2.21c1.49 0 2.68 0.488 3.58 1.46 0.864 0.96 1.3 2.22 1.3 3.77 0 1.52-0.432 2.76-1.3 3.72m2.16-9.41c-1.46-1.41-3.37-2.11-5.74-2.11h-5.06v15.6h5.06c2.37 0 4.28-0.704 5.74-2.11 1.47-1.41 2.21-3.3 2.21-5.66 0-2.38-0.736-4.28-2.21-5.69"/>
  <polygon id="Fill-4" points="11.2 41.4 14 41.4 14 25.8 11.2 25.8 11.2 36.8 4.34 25.8 1.25 25.8 1.25 41.4 4.08 41.4 4.08 30"/>
  <path id="Fill-6" d="m8.83 13.6c-0.561 0.328-1.17 0.492-1.82 0.492-0.656 0-1.18-0.056-1.58-0.168-1.33-0.336-1.99-1.14-1.99-2.42h-2.81c0.063 1.7 0.695 3.01 1.9 3.94 1.07 0.848 2.47 1.27 4.2 1.27 1.95 0 3.46-0.412 4.51-1.24 1.06-0.824 1.58-1.94 1.58-3.35 0-1.02-0.311-1.88-0.935-2.56s-1.51-1.24-2.66-1.69l-3.44-1.3c-0.62-0.23-1.08-0.47-1.38-0.74-0.29-0.26-0.44-0.62-0.44-1.09 0-0.464 0.227-0.86 0.683-1.19 0.456-0.328 1.09-0.492 1.91-0.492 1.66 0 2.62 0.68 2.88 2.04h2.81c-0.2-1.45-0.7-2.59-1.7-3.39-0.91-0.812-2.26-1.22-4.01-1.22s-3.14 0.392-4.16 1.18c-1.01 0.752-1.51 1.78-1.51 3.07 0 1.1 0.32 1.97 0.961 2.59 0.64 0.624 1.56 1.17 2.76 1.63l3.1 1.22c0.688 0.256 1.18 0.532 1.49 0.828 0.303 0.296 0.456 0.72 0.456 1.27 0 0.552-0.28 0.992-0.84 1.32"/>
  <polygon id="Fill-8" points="26.3 3.25 33.5 3.25 33.5 0.806 23.4 0.806 23.4 16.4 33.5 16.4 33.5 13.9 26.3 13.9 26.3 9.81 33 9.81 33 7.36 26.3 7.36"/>
 </g>
 <path id="Signet" d="m11.6 3-0.6 0.6l8.8 35.7 0.486 0.381h35.1l13.3 10.5 0.8-0.2 16.8-41.2-0.7-0.71-27.2 9.61-46.8-14.7zm2.21 1.75 44 13.9-2.57 19-0.075 0.553l-41.3-33.4zm-1.52 0.055 34.2 27.6 7.68 6.21h-33.5l-8.4-33.8zm46.6 13.8 25-8.84-27.6 27.9 2.6-19.1zm-2.6 20.5 28.1-28.4-15.6 38.3-12.5-9.9z" fill-rule="evenodd" fill="#0fcece"/>
</svg>
