<svg id="svg2" xmlns:rdf="http://www.w3.org/1999/02/22-rdf-syntax-ns#" xmlns="http://www.w3.org/2000/svg" xml:space="preserve" height="35.6" viewBox="0 0 167.25 35.625" width="167" version="1.1" xmlns:cc="http://creativecommons.org/ns#" xmlns:dc="http://purl.org/dc/elements/1.1/"><g id="g10" transform="matrix(1.25 0 0 -1.25 0 35.6)"><g id="g12" transform="scale(.1)"><path id="path14" d="m754 48.8c0 14.7-4.54 26.4-13.6 35.1-8.96 8.67-20.8 13-35.4 13h-31.2v-96h31.2c14.6 0 26.4 4.34 35.4 13 9.08 8.68 13.6 20.3 13.6 34.9m-18.9 0c0-9.36-2.67-17-7.99-22.9-5.62-6.11-13-9.17-22-9.17h-13.6v64.4h13.6c9.17 0 16.5-3.02 22-9.04 5.32-5.91 7.99-13.6 7.99-23.2m-58.1 106h61.8v15.2h-44.4v25.3h41.6v15.1h-41.6v25.3h44.4v15.1h-61.8v-96zm-76-154h17.8v96h-17.5v-68l-42.3 68h-19.1v-96h17.4v70.4l43.6-70.4zm-41 219c-1.83 1.62-2.74 3.88-2.74 6.73 0 2.86 1.4 5.3 4.21 7.32 2.82 2.02 6.74 3.03 11.8 3.03 10.3 0 16.2-4.19 17.8-12.6h17.3c-0.887 8.97-4.26 16-10.1 20.9-5.87 4.98-14.2 7.47-25 7.47s-19.4-2.41-25.7-7.25c-6.22-4.64-9.32-10.9-9.32-18.9 0-6.81 1.97-12.1 5.91-16 3.95-3.85 9.62-7.2 17-10.1l19.1-7.54c4.24-1.58 7.29-3.28 9.17-5.1 1.87-1.83 2.81-4.44 2.81-7.84 0-3.41-1.73-6.12-5.18-8.14s-7.2-3.03-11.2-3.03c-4.04 0-7.3 0.339-9.76 1.03-8.19 2.07-12.3 7.05-12.3 14.9h-17.3c0.398-10.4 4.29-18.5 11.7-24.3 6.61-5.22 15.2-7.84 25.9-7.84 12 0 21.3 2.54 27.8 7.62 6.51 5.08 9.76 12 9.76 20.6 0 6.31-1.92 11.6-5.76 15.8-3.85 4.19-9.32 7.67-16.4 10.4l-20.9 8.13c-3.85 1.38-6.68 2.89-8.5 4.52" fill="#00027f"/><path id="path16" d="m3.88 285-3.88-4 53.6-214l2.96-2.29h214l81-63.9 5 1.27 102 248-4 4-166-58-285 89zm13.5-11 269-83-16-115v-2.9l-253 201zm-9.31 0 208-166 47-37.6h-204l-50.9 204zm284-83 153 53-169-168 16 115zm-16-123 171 171-94-231-77 59.6" fill="#0fcece"/><g fill="#00027f"><path id="path18" d="m843 39.8v-38.9h12.7c5.92 0 10.7 1.76 14.3 5.27 3.67 3.52 5.52 8.24 5.52 14.2s-1.84 10.7-5.52 14.2c-3.64 3.52-8.43 5.28-14.3 5.28h-12.7zm7.14-6.41h5.52c3.72 0 6.7-1.22 8.95-3.66 2.16-2.4 3.23-5.54 3.23-9.42 0-3.8-1.07-6.89-3.23-9.3-3-2.5-6-3.74-9-3.74h-5.52v26.1zm54.4-6.85c-2.25 2.84-5.38 4.27-9.42 4.27-3.88 0-7.1-1.37-9.66-4.08-2.68-2.84-4.02-6.6-4.02-11.3 0-4.56 1.34-8.3 4.02-11.2 2.6-2.8 5.82-4.2 9.66-4.2 3.28 0 6.05 0.879 8.34 2.64 2.2 1.68 3.54 3.98 4.02 6.91h-7.15c-0.559-2.57-2.3-3.85-5.22-3.85-2.2 0-3.84 0.742-4.92 2.23-1.07 1.48-1.66 3.4-1.74 5.75h18.8c0.168 1.12 0.246 2.38 0.246 3.79 0 1.39-0.254 2.94-0.754 4.62-0.496 1.68-1.25 3.15-2.25 4.43m-6.6-1.97c1.99-1.09 3-3.21 3-6.37h-12.4c0.203 2.04 0.86 3.71 1.98 5.01s2.68 1.95 4.68 1.95c1.08 0 2-0.207 2.76-0.594m37.4-23.7h7.08v29.2h-7.08v-14.4c-0.086-2.88-0.868-5.18-2.34-6.89-0.684-0.758-1.48-1.34-2.4-1.71-0.918-0.383-2.05-0.578-3.39-0.578s-2.47 0.469-3.39 1.42c-0.918 0.938-1.38 2.36-1.38 4.29v17.9h-7.08v-18.6c0-2 0.293-3.7 0.898-5.1 1.64-4.04 5.04-6.06 10.2-6.06 4.08 0 7.04 1.94 8.89 5.82v-5.27zm33.7 5.69c-1.84-0.633-3.34-0.957-4.49-0.957-2.28 0-3.43 1.2-3.43 3.61v16.1h7.92v4.75h-7.92v7.68h-7.08v-7.68h-4.07v-4.75h4.07v-16.3c0-2.88 0.93-5.14 2.76-6.78 0.879-0.723 1.88-1.26 3.03-1.62 1.14-0.359 2.47-0.535 3.99-0.535s3.59 0.516 6.24 1.55l-1.03 4.98zm5.64 3.18c0.039-3.07 1.24-5.46 3.59-7.17 2.36-1.7 5.49-2.55 9.37-2.55s7 0.918 9.36 2.75c2.28 1.76 3.42 3.84 3.42 6.24 0 1.89-0.612 3.41-1.83 4.59s-2.97 2.14-5.24 2.91l-6.91 2.58c-2.36 0.684-3.54 1.73-3.54 3.12 0 0.805 0.43 1.52 1.29 2.13 0.859 0.625 2.07 0.93 3.62 0.93 1.56 0 2.76-0.273 3.6-0.84 0.84-0.559 1.3-1.32 1.38-2.28h6.66c-0.078 2.48-1.12 4.54-3.14 6.18s-4.9 2.46-8.64 2.46-6.72-0.754-8.93-2.26c-2.23-1.49-3.33-3.48-3.33-5.96 0-3.72 2.36-6.41 7.08-8.05l6.36-2.28c1.28-0.398 2.22-0.84 2.82-1.32 0.594-0.48 0.898-1.16 0.898-2.04 0-0.875-0.488-1.65-1.48-2.31-0.977-0.656-2.23-0.988-3.75-0.988-3.95 0-5.98 1.38-6.06 4.14h-6.6zm35.6 17c-2.76-2.84-4.15-6.62-4.15-11.3 0-4.48 1.39-8.22 4.15-11.2 2.6-2.8 5.82-4.2 9.66-4.2 3.88 0 6.9 1.07 9.06 3.23 2.12 2.13 3.18 4.79 3.18 7.99h-7.14c0-1.48-0.41-2.66-1.23-3.51-0.82-0.863-2.14-1.29-3.96-1.29s-3.37 0.75-4.65 2.24c-1.28 1.51-1.92 3.73-1.92 6.7 0 2.96 0.68 5.27 2.03 6.95 0.61 0.723 1.31 1.25 2.11 1.59 0.79 0.344 1.76 0.508 2.87 0.508 1.13 0 2.11-0.422 2.98-1.26 0.86-0.84 1.45-1.89 1.77-3.17l7.14 0.176c-0.36 2.92-1.54 5.34-3.55 7.25-0.99 1.01-2.22 1.82-3.68 2.43-1.46 0.625-3.11 0.938-4.95 0.938-3.88 0-7.12-1.35-9.72-4.02m37.5 15.2h-7.08v-41.2h7.08v13.5c0.08 3.36 0.79 5.88 2.12 7.56 1.35 1.68 2.96 2.52 4.84 2.52s3.34-0.547 4.38-1.65c1.04-1.09 1.56-2.72 1.56-4.88v-17h7.08v17c0 3.88-0.91 7-2.73 9.36-1.83 2.36-4.65 3.55-8.5 3.55-3.83 0-6.75-1.85-8.75-5.53v16.7zm30.3-41.2h7.08v41.2h-7.08v-41.2zm19.1 14.8c-2.12-1.46-3.19-3.54-3.19-6.24 0-2.69 0.97-4.93 2.89-6.69 2.08-1.84 5-2.75 8.76-2.75 3.88 0 6.76 1.57 8.64 4.73l0.54-3.89h6.18v18.5c0 1.96-0.31 3.66-0.9 5.1-1.76 4.2-5.64 6.31-11.6 6.31-4.2 0-7.47-0.742-9.81-2.23-2.34-1.47-3.51-3.88-3.51-7.2h7.74c0 1.36 0.5 2.41 1.5 3.14 1 0.742 2.43 1.11 4.29 1.11s3.2-0.488 4.02-1.46c0.82-0.984 1.23-2.49 1.23-4.53v-2.88c-3.04 0.762-5.73 1.14-8.04 1.14-3.68 0-6.58-0.73-8.7-2.2m14.7-8.34c-1.26-1.3-2.86-1.95-4.8-1.95s-3.35 0.395-4.23 1.16c-0.88 0.781-1.32 1.72-1.32 2.79 0 2.56 1.92 3.84 5.76 3.84 2.04 0 4.24-0.312 6.6-0.957-0.08-1.96-0.76-3.59-2.01-4.89m25.6 22.7h-6.18v-29.2h7.08v13.5c0.08 3.36 0.79 5.88 2.13 7.56s2.95 2.52 4.83 2.52 3.34-0.547 4.38-1.65c1.04-1.09 1.56-2.72 1.56-4.88v-17h7.08v17c0 3.88-0.91 7-2.73 9.36s-4.54 3.55-8.13 3.55c-4.24 0-7.32-1.95-9.24-5.82l-0.78 5.04zm51.1-29.2h5.82v41.2h-7.14v-15.6c-1.84 2.92-4.59 4.39-8.23 4.39-3.63 0-6.68-1.39-9.11-4.14-2.49-2.84-3.72-6.54-3.72-11.1s1.29-8.32 3.9-11.3c2.52-2.84 5.64-4.26 9.35-4.26 3.73 0 6.49 1.78 8.29 5.33l0.84-4.49zm-3.42 21.8c1.32-1.32 2.01-3.02 2.1-5.1v-3.78c0-2.12-0.7-3.89-2.1-5.28-1.36-1.36-2.91-2.04-4.62-2.04-2.08 0-3.81 0.828-5.16 2.49-1.37 1.66-2.04 3.85-2.04 6.57 0 2.71 0.66 4.89 2.01 6.5 1.34 1.62 3 2.43 5.01 2.43 1.99 0 3.6-0.598 4.8-1.8"/><path id="path20" d="m843 110v-38.9h7.08v28.6l17.7-28.6h7.2v38.9h-7.08v-27.6l-17.2 27.6h-7.73zm63.5-13.3c-2.23 2.84-5.38 4.27-9.42 4.27-3.88 0-7.1-1.37-9.66-4.08-2.68-2.84-4.01-6.6-4.01-11.3 0-4.56 1.34-8.3 4.01-11.2 2.6-2.8 5.82-4.2 9.66-4.2 3.28 0 6.06 0.879 8.34 2.64 2.21 1.68 3.54 3.98 4.02 6.91h-7.14c-0.555-2.57-2.3-3.85-5.22-3.85-2.2 0-3.84 0.742-4.91 2.23-1.08 1.48-1.66 3.4-1.75 5.75h18.8c0.156 1.12 0.234 2.38 0.234 3.79 0 1.39-0.246 2.94-0.754 4.62-0.496 1.68-1.25 3.15-2.25 4.43m-6.6-1.97c2-1.09 3-3.21 3-6.37h-12.4c0.195 2.04 0.859 3.71 1.97 5.01 1.12 1.3 2.69 1.95 4.69 1.95 1.07 0 1.99-0.207 2.75-0.594m33.5-18c-1.84-0.633-3.34-0.957-4.49-0.957-2.28 0-3.43 1.2-3.43 3.61v16.1h7.92v4.75h-7.92v7.68h-7.08v-7.68h-4.07v-4.75h4.07v-16.3c0-2.88 0.93-5.14 2.77-6.78 0.879-0.723 1.89-1.26 3.03-1.62 1.14-0.359 2.47-0.535 3.99-0.535s3.61 0.516 6.24 1.55l-1.03 4.98zm6.12-5.69h22.9v5.75h-14.6l14.6 17.6v5.76h-22.9v-5.76h15.1l-15.1-17.6v-5.75zm27 29.2 9.66-29.2h7.02l5.28 17.5 5.4-17.5h6.96l9.6 29.2h-7.08l-5.94-20.9-5.58 19.3h-6.42l-5.58-19.2-5.88 20.8h-7.44zm70.7-3.49c-2.24 2.84-5.38 4.27-9.42 4.27-3.88 0-7.1-1.37-9.66-4.08-2.68-2.84-4.02-6.6-4.02-11.3 0-4.56 1.34-8.3 4.02-11.2 2.6-2.8 5.82-4.2 9.66-4.2 3.28 0 6.06 0.879 8.34 2.64 2.2 1.68 3.54 3.98 4.02 6.91h-7.14c-0.56-2.57-2.3-3.85-5.22-3.85-2.2 0-3.84 0.742-4.92 2.23-1.08 1.48-1.66 3.4-1.74 5.75h18.8c0.16 1.12 0.24 2.38 0.24 3.79 0 1.39-0.25 2.94-0.75 4.62s-1.25 3.15-2.25 4.43m-6.6-1.97c2-1.09 3-3.21 3-6.37h-12.4c0.2 2.04 0.86 3.71 1.98 5.01s2.68 1.95 4.68 1.95c1.08 0 2-0.207 2.76-0.594m25.1 5.52h-7.08v-29.2h7.08v12.8c0 6.52 2.36 9.79 7.08 9.79 1.08 0 2.18-0.117 3.3-0.363l0.12 7.08c-1.04 0.281-1.9 0.418-2.58 0.418-3.52 0-6.16-2.1-7.92-6.3v5.82zm38.2-29.2h8.63l-13.6 18.4 12.9 10.8h-9.6l-11.5-10.3v22.3h-7.08v-41.2h7.08v11.5l3.24 2.71 9.96-14.2"/><path id="path22" d="m843 141h25.1v6.18h-18v10.3h16.9v6.12h-16.9v10.3h18v6.12h-25.1v-38.9zm41.4 29.2h-6.18v-29.2h7.08v13.5c0.078 3.36 0.789 5.88 2.13 7.56 1.35 1.68 2.95 2.52 4.83 2.52 1.89 0 3.34-0.547 4.39-1.64 1.04-1.1 1.55-2.73 1.55-4.89v-17h7.08v17c0 3.88-0.911 7-2.73 9.36s-4.53 3.54-8.13 3.54c-4.24 0-7.32-1.94-9.24-5.82l-1 5zm46.6-23.5c-1.84-0.641-3.34-0.965-4.5-0.965-2.27 0-3.42 1.2-3.42 3.6v16.1h7.92v4.74h-7.92v7.68h-7.08v-7.68h-4.08v-4.74h4.08v-16.3c0-2.88 0.918-5.14 2.76-6.78 0.879-0.722 1.89-1.26 3.03-1.62 1.14-0.359 2.47-0.539 3.98-0.539 1.52 0 3.61 0.52 6.24 1.56l-1.02 4.98zm15.4 23.5h-7.08v-29.2h7.08v12.8c0 6.52 2.36 9.78 7.08 9.78 1.07 0 2.18-0.121 3.3-0.363l0.117 7.08c-1.04 0.277-1.89 0.418-2.58 0.418-3.53 0-6.16-2.1-7.92-6.3v5.82zm38.2-3.54c-2.25 2.84-5.38 4.26-9.42 4.26-3.88 0-7.1-1.36-9.66-4.08-2.68-2.84-4.02-6.6-4.02-11.3 0-4.56 1.34-8.3 4.02-11.2 2.6-2.8 5.82-4.2 9.66-4.2 3.28 0 6.06 0.883 8.34 2.64 2.2 1.68 3.54 3.98 4.02 6.9h-7.14c-0.567-2.56-2.3-3.84-5.22-3.84-2.2 0-3.84 0.735-4.92 2.22-1.07 1.48-1.66 3.4-1.74 5.76h18.8c0.168 1.12 0.246 2.38 0.246 3.78s-0.254 2.94-0.754 4.62c-0.496 1.68-1.25 3.16-2.25 4.44m-6.6-1.98c2-1.08 3-3.2 3-6.36h-12.4c0.203 2.04 0.86 3.7 1.98 5.01 1.12 1.3 2.68 1.95 4.68 1.95 1.08 0 2-0.2 2.76-0.602m23.9 5.46h-5.82v-43.4h7.08v16.6c1.64-2.12 4.24-3.18 7.8-3.18s6.62 1.36 9.18 4.08c2.75 2.88 4.14 6.66 4.14 11.3s-1.36 8.4-4.08 11.3c-2.56 2.72-5.65 4.08-9.24 4.08-3.76 0-6.56-1.58-8.4-4.74l-0.66 3.96zm3.24-22c-1.32 1.16-1.98 2.68-1.98 4.56v5.22c0.08 2.12 0.75 3.75 2.01 4.89s2.88 1.71 4.86 1.71 3.66-0.797 5.04-2.4 2.07-3.81 2.07-6.63-0.8-5.07-2.4-6.75c-0.72-0.762-1.53-1.32-2.43-1.68-0.9-0.359-1.77-0.539-2.61-0.539-1.81 0-3.32 0.539-4.56 1.62m34.6 22h-7.08v-29.2h7.08v12.8c0 6.52 2.36 9.78 7.08 9.78 1.08 0 2.18-0.121 3.3-0.363l0.12 7.08c-1.04 0.277-1.9 0.418-2.58 0.418-3.52 0-6.16-2.1-7.92-6.3v5.82zm38.2-3.54c-2.25 2.84-5.38 4.26-9.42 4.26-3.88 0-7.1-1.36-9.66-4.08-2.69-2.84-4.02-6.6-4.02-11.3 0-4.56 1.33-8.3 4.02-11.2 2.6-2.8 5.82-4.2 9.66-4.2 3.28 0 6.06 0.883 8.34 2.64 2.19 1.68 3.54 3.98 4.02 6.9h-7.14c-0.56-2.56-2.3-3.84-5.22-3.84-2.2 0-3.84 0.735-4.92 2.22s-1.66 3.4-1.74 5.76h18.8c0.16 1.12 0.24 2.38 0.24 3.78s-0.25 2.94-0.75 4.62-1.25 3.16-2.25 4.44m-6.6-1.98c2-1.08 3-3.2 3-6.36h-12.4c0.2 2.04 0.86 3.7 1.98 5.01 1.12 1.3 2.67 1.95 4.68 1.95 1.08 0 2-0.2 2.76-0.602m24.2 5.46h-6.18v-29.2h7.08v13.5c0.08 3.36 0.78 5.88 2.13 7.56 1.33 1.68 2.94 2.52 4.83 2.52 1.88 0 3.34-0.547 4.38-1.64 1.04-1.1 1.56-2.73 1.56-4.89v-17h7.08v17c0 3.88-0.91 7-2.73 9.36s-4.53 3.54-8.13 3.54c-4.24 0-7.33-1.94-9.24-5.82l-0.78 5.04zm51.5-3.48c-2.24 2.84-5.38 4.26-9.42 4.26-3.88 0-7.1-1.36-9.66-4.08-2.69-2.84-4.02-6.6-4.02-11.3 0-4.56 1.33-8.3 4.02-11.2 2.6-2.8 5.82-4.2 9.66-4.2 3.28 0 6.06 0.883 8.34 2.64 2.2 1.68 3.54 3.98 4.02 6.9h-7.14c-0.56-2.56-2.3-3.84-5.22-3.84-2.2 0-3.84 0.735-4.92 2.22s-1.66 3.4-1.74 5.76h18.8c0.16 1.12 0.24 2.38 0.24 3.78s-0.25 2.94-0.75 4.62-1.25 3.16-2.25 4.44m-6.6-1.98c2-1.08 3-3.2 3-6.36h-12.4c0.2 2.04 0.86 3.7 1.98 5.01 1.12 1.3 2.67 1.95 4.68 1.95 1.08 0 2-0.2 2.76-0.602m37.4-23.7h7.08v29.2h-7.08v-14.4c-0.08-2.88-0.86-5.18-2.34-6.9-0.69-0.754-1.48-1.33-2.4-1.71-0.92-0.383-2.05-0.574-3.39-0.574s-2.47 0.476-3.39 1.41c-0.92 0.941-1.38 2.37-1.38 4.29v17.9h-7.08v-18.6c0-2 0.29-3.7 0.9-5.1 1.64-4.04 5.04-6.06 10.2-6.06 4.08 0 7.04 1.94 8.88 5.82v-5.28zm25.3 29.2h-7.08v-29.2h7.08v12.8c0 6.52 2.37 9.78 7.08 9.78 1.09 0 2.19-0.121 3.31-0.363l0.12 7.08c-1.04 0.277-1.9 0.418-2.59 0.418-3.51 0-6.15-2.1-7.92-6.3v5.82zm15.2-20.3c0.04-3.08 1.24-5.46 3.6-7.17 2.36-1.7 5.48-2.55 9.36-2.55 3.87 0 7 0.922 9.36 2.76 2.28 1.76 3.42 3.84 3.42 6.23 0 1.89-0.61 3.41-1.84 4.6-1.22 1.18-2.96 2.15-5.24 2.9l-6.9 2.59c-2.36 0.676-3.54 1.72-3.54 3.12 0 0.805 0.43 1.51 1.29 2.13 0.86 0.621 2.07 0.934 3.63 0.934s2.76-0.282 3.6-0.844c0.84-0.559 1.3-1.32 1.38-2.28h6.66c-0.08 2.48-1.13 4.54-3.15 6.18s-4.9 2.46-8.64 2.46-6.72-0.754-8.94-2.25c-2.23-1.5-3.33-3.49-3.33-5.96 0-3.72 2.35-6.4 7.08-8.04l6.36-2.28c1.28-0.398 2.22-0.84 2.82-1.32 0.6-0.484 0.9-1.16 0.9-2.04 0-0.875-0.49-1.65-1.48-2.31-0.97-0.66-2.22-0.992-3.75-0.992-3.95 0-5.97 1.38-6.05 4.14h-6.6zm41.3 32.3h-7.08v-41.2h7.08v13.5c0.07 3.36 0.79 5.88 2.13 7.56s2.94 2.52 4.83 2.52c1.87 0 3.34-0.547 4.37-1.64 1.05-1.1 1.57-2.73 1.57-4.89v-17h7.08v17c0 3.88-0.91 7-2.73 9.36s-4.66 3.54-8.49 3.54c-3.84 0-6.76-1.84-8.76-5.52v16.7zm30.9-41.2h7.08v29.2h-7.08v-29.2zm0.31 35.6c0.76-0.743 1.84-1.11 3.24-1.11 1.36 0 2.43 0.367 3.21 1.11 0.77 0.742 1.16 1.75 1.16 3.03s-0.39 2.29-1.16 3.03c-0.78 0.742-1.85 1.11-3.21 1.11-1.4 0-2.48-0.368-3.24-1.11s-1.14-1.75-1.14-3.03 0.38-2.28 1.14-3.03m24.6-6.39h-5.82v-43.4h7.08v16.6c1.64-2.12 4.24-3.18 7.8-3.18 3.55 0 6.62 1.36 9.18 4.08 2.76 2.88 4.14 6.66 4.14 11.3s-1.36 8.4-4.08 11.3c-2.56 2.72-5.64 4.08-9.24 4.08-3.76 0-6.56-1.58-8.4-4.74l-0.66 3.96zm3.24-22c-1.32 1.16-1.98 2.68-1.98 4.56v5.22c0.08 2.12 0.75 3.75 2.01 4.89s2.88 1.71 4.86 1.71c1.97 0 3.65-0.797 5.04-2.4 1.38-1.6 2.07-3.81 2.07-6.63s-0.8-5.07-2.4-6.75c-0.72-0.762-1.53-1.32-2.43-1.68-0.9-0.359-1.77-0.539-2.61-0.539-1.8 0-3.32 0.539-4.56 1.62"/><path id="path24" d="m870 239c-0.359 3.64-1.73 6.47-4.11 8.48-2.38 2.02-5.76 3.03-10.1 3.03-4.39 0-7.85-0.981-10.4-2.94-2.52-1.88-3.78-4.44-3.78-7.68 0-2.76 0.801-4.92 2.39-6.48 1.6-1.56 3.91-2.92 6.9-4.08l7.75-3.06c1.72-0.636 2.96-1.33 3.71-2.07 0.761-0.742 1.14-1.8 1.14-3.18s-0.703-2.47-2.1-3.29-2.92-1.23-4.56-1.23-2.96 0.137-3.95 0.418c-3.32 0.84-4.98 2.86-4.98 6.06h-7.02c0.156-4.24 1.74-7.52 4.74-9.84 2.68-2.12 6.18-3.18 10.5-3.18 4.88 0 8.64 1.03 11.3 3.09 2.64 2.06 3.96 4.85 3.96 8.37 0 2.57-0.782 4.7-2.34 6.4s-3.78 3.11-6.66 4.23l-8.46 3.3c-1.56 0.562-2.71 1.17-3.45 1.83-0.742 0.66-1.11 1.57-1.11 2.73s0.578 2.15 1.71 2.97c1.14 0.82 2.73 1.23 4.77 1.23 4.16 0 6.56-1.7 7.2-5.1h7.02zm13-2c-2.77-2.76-4.14-6.64-4.14-11.6 0-4.92 1.38-8.76 4.14-11.5 2.56-2.56 5.92-3.84 10.1-3.84 4.16 0 7.48 1.28 9.96 3.84 2.76 2.8 4.14 6.64 4.14 11.5 0 4.96-1.38 8.84-4.14 11.6-1.24 1.28-2.72 2.23-4.43 2.85-1.73 0.621-3.57 0.929-5.53 0.929-4.2 0-7.56-1.26-10.1-3.78m15.1-18.5c-1.36-1.54-3.1-2.31-5.22-2.31s-3.79 0.773-5.01 2.31-1.84 3.86-1.84 6.93c0 3.08 0.684 5.39 2.04 6.93s3.11 2.31 5.25 2.31 3.81-0.769 5.01-2.31 1.8-3.85 1.8-6.93c0-3.07-0.672-5.39-2.04-6.93m18.9 18.3c-2.77-2.84-4.14-6.62-4.14-11.3 0-4.48 1.38-8.22 4.14-11.2 2.6-2.8 5.82-4.2 9.66-4.2 3.88 0 6.9 1.08 9.06 3.24 2.12 2.12 3.18 4.78 3.18 7.98h-7.14c0-1.48-0.41-2.65-1.23-3.51-0.82-0.859-2.14-1.29-3.95-1.29-1.83 0-3.38 0.754-4.66 2.25s-1.91 3.73-1.91 6.69 0.676 5.28 2.04 6.96c0.594 0.723 1.3 1.25 2.1 1.59 0.801 0.34 1.76 0.508 2.88 0.508 1.11 0 2.11-0.422 2.97-1.26 0.859-0.84 1.44-1.9 1.77-3.18l7.14 0.18c-0.363 2.92-1.54 5.34-3.54 7.26-1.01 1-2.24 1.81-3.69 2.43-1.46 0.621-3.12 0.929-4.95 0.929-3.88 0-7.12-1.34-9.72-4.02m31-25.9h7.08v29.2h-7.08v-29.2zm0.301 35.6c0.762-0.743 1.84-1.11 3.24-1.11 1.36 0 2.42 0.367 3.2 1.11 0.782 0.742 1.17 1.75 1.17 3.03s-0.39 2.29-1.17 3.03c-0.781 0.742-1.84 1.11-3.2 1.11-1.41 0-2.48-0.368-3.24-1.11-0.762-0.742-1.14-1.75-1.14-3.03s0.378-2.28 1.14-3.03m19.7-20.7c-2.12-1.46-3.18-3.54-3.18-6.24s0.965-4.93 2.88-6.69c2.08-1.84 5-2.76 8.76-2.76 3.89 0 6.77 1.58 8.64 4.74l0.539-3.9h6.18v18.5c0 1.96-0.301 3.66-0.898 5.1-1.76 4.2-5.64 6.3-11.6 6.3-4.2 0-7.47-0.742-9.8-2.22-2.34-1.48-3.52-3.88-3.52-7.2h7.75c0 1.36 0.496 2.41 1.49 3.15 1.01 0.734 2.43 1.1 4.3 1.1 1.86 0 3.2-0.488 4.02-1.47 0.82-0.98 1.23-2.49 1.23-4.53v-2.88c-3.04 0.758-5.72 1.14-8.04 1.14-3.68 0-6.58-0.727-8.7-2.19m14.7-8.34c-1.26-1.3-2.86-1.95-4.8-1.95s-3.35 0.391-4.23 1.17c-0.879 0.782-1.32 1.71-1.32 2.79 0 2.56 1.91 3.84 5.75 3.84 2.04 0 4.25-0.324 6.6-0.965-0.078-1.96-0.754-3.59-2.01-4.89m19.4-6.51h7.08v41.2h-7.08v-41.2"/></g></g></g></svg>
