<?xml version="1.0" encoding="UTF-8"?>
<svg width="137px" height="53px" viewBox="0 0 137 53" version="1.1" xmlns="http://www.w3.org/2000/svg" xmlns:xlink="http://www.w3.org/1999/xlink">
    <!-- Generator: sketchtool 47.1 (45422) - http://www.bohemiancoding.com/sketch -->
    <title>65356CBE-DFF7-43DF-A182-967DAE328B9A</title>
    <desc>Created with sketchtool.</desc>
    <defs></defs>
    <g id="Symbols" stroke="none" stroke-width="1" fill="none" fill-rule="evenodd">
        <g id="SEND-Logo-Top">
            <g id="SEND-Logo" transform="translate(11.000000, 3.000000)">
                <g id="Typo" transform="translate(90.000000, 3.421400)" fill="#00027F">
                    <path d="M31.5605,37.3257 C30.6485,38.3177 29.4565,38.8137 27.9845,38.8137 L25.7765,38.8137 L25.7765,28.3737 L27.9845,28.3737 C29.4725,28.3737 30.6645,28.8617 31.5605,29.8377 C32.4245,30.7977 32.8565,32.0537 32.8565,33.6057 C32.8565,35.1257 32.4245,36.3657 31.5605,37.3257 M33.7205,27.9177 C32.2645,26.5097 30.3525,25.8057 27.9845,25.8057 L22.9205,25.8057 L22.9205,41.3817 L27.9845,41.3817 C30.3525,41.3817 32.2645,40.6777 33.7205,39.2697 C35.1925,37.8617 35.9285,35.9737 35.9285,33.6057 C35.9285,31.2217 35.1925,29.3257 33.7205,27.9177" id="Fill-2"></path>
                    <polygon id="Fill-4" points="11.209 36.8462 4.345 25.8062 1.248 25.8062 1.248 41.3822 4.08 41.3822 4.08 29.9582 11.16 41.3822 14.041 41.3822 14.041 25.8062 11.209 25.8062"></polygon>
                    <path d="M8.833,13.6099 C8.272,13.9379 7.664,14.1019 7.009,14.1019 C6.353,14.1019 5.824,14.0459 5.425,13.9339 C4.097,13.5979 3.433,12.7899 3.433,11.5099 L0.625,11.5099 C0.688,13.2059 1.32,14.5179 2.521,15.4459 C3.593,16.2939 4.992,16.7179 6.721,16.7179 C8.673,16.7179 10.177,16.3059 11.232,15.4819 C12.289,14.6579 12.816,13.5419 12.816,12.1339 C12.816,11.1099 12.505,10.2579 11.881,9.5779 C11.257,8.8979 10.368,8.3339 9.217,7.8859 L5.833,6.5659 C5.209,6.3419 4.748,6.0979 4.452,5.8339 C4.156,5.5699 4.009,5.2059 4.009,4.7419 C4.009,4.2779 4.236,3.8819 4.692,3.5539 C5.148,3.2259 5.784,3.0619 6.601,3.0619 C8.265,3.0619 9.225,3.7419 9.48,5.1019 L12.289,5.1019 C12.145,3.6459 11.597,2.5139 10.645,1.7059 C9.692,0.8979 8.341,0.4939 6.589,0.4939 C4.837,0.4939 3.448,0.8859 2.425,1.6699 C1.417,2.4219 0.912,3.4459 0.912,4.7419 C0.912,5.8459 1.232,6.7099 1.873,7.3339 C2.513,7.9579 3.433,8.5019 4.633,8.9659 L7.729,10.1899 C8.417,10.4459 8.912,10.7219 9.217,11.0179 C9.52,11.3139 9.673,11.7379 9.673,12.2899 C9.673,12.8419 9.393,13.2819 8.833,13.6099" id="Fill-6"></path>
                    <polygon id="Fill-8" points="33.457 13.9097 26.257 13.9097 26.257 9.8057 33.001 9.8057 33.001 7.3577 26.257 7.3577 26.257 3.2537 33.457 3.2537 33.457 0.8057 23.425 0.8057 23.425 16.3817 33.457 16.3817"></polygon>
                </g>
                <path d="M0.635,0 L0,0.597 L8.797,36.275 L9.283,36.656 L44.415,36.656 L57.746,47.21 L58.52,47.006 L75.258,5.748 L74.628,5.09 L47.406,14.739 L0.635,0 Z M2.849,1.747 L46.863,15.617 L44.289,34.655 L44.214,35.208 L2.849,1.747 Z M1.327,1.802 L35.499,29.445 L43.176,35.655 L9.675,35.655 L1.327,1.802 Z M47.87,15.636 L72.908,6.76 L45.286,34.739 L47.87,15.636 Z M45.337,36.11 L73.388,7.696 L57.844,46.012 L45.337,36.11 Z" id="Signet" fill="#0FCECE"></path>
            </g>
        </g>
    </g>
</svg>
