<?xml version="1.0" encoding="UTF-8" standalone="no"?>
<svg
   xmlns:dc="http://purl.org/dc/elements/1.1/"
   xmlns:cc="http://creativecommons.org/ns#"
   xmlns:rdf="http://www.w3.org/1999/02/22-rdf-syntax-ns#"
   xmlns:svg="http://www.w3.org/2000/svg"
   xmlns="http://www.w3.org/2000/svg"
   xmlns:sodipodi="http://sodipodi.sourceforge.net/DTD/sodipodi-0.dtd"
   xmlns:inkscape="http://www.inkscape.org/namespaces/inkscape"
   width="41"
   height="41"
   viewBox="0 0 41 41"
   version="1.1"
   id="svg2"
   inkscape:version="0.91 r13725"
   sodipodi:docname="favicon.svg"
   inkscape:export-filename="/home/jenn/Downloads/send-logo-text.png"
   inkscape:export-xdpi="90"
   inkscape:export-ydpi="90">
  <metadata
     id="metadata21">
    <rdf:RDF>
      <cc:Work
         rdf:about="">
        <dc:format>image/svg+xml</dc:format>
        <dc:type
           rdf:resource="http://purl.org/dc/dcmitype/StillImage" />
        <dc:title>65356CBE-DFF7-43DF-A182-967DAE328B9A</dc:title>
      </cc:Work>
    </rdf:RDF>
  </metadata>
  <sodipodi:namedview
     pagecolor="#ffffff"
     bordercolor="#666666"
     borderopacity="1"
     objecttolerance="10"
     gridtolerance="10"
     guidetolerance="10"
     inkscape:pageopacity="0"
     inkscape:pageshadow="2"
     inkscape:window-width="1449"
     inkscape:window-height="607"
     id="namedview19"
     showgrid="false"
     showguides="true"
     inkscape:guide-bbox="true"
     inkscape:snap-bbox="true"
     inkscape:bbox-nodes="true"
     inkscape:snap-bbox-midpoints="true"
     inkscape:zoom="2.2189781"
     inkscape:cx="68.5"
     inkscape:cy="26.5"
     inkscape:window-x="0"
     inkscape:window-y="27"
     inkscape:window-maximized="0"
     inkscape:current-layer="svg2">
    <sodipodi:guide
       position="0,41.460526"
       orientation="1,0"
       id="guide4170"
       inkscape:label=""
       inkscape:color="rgb(0,0,255)" />
    <sodipodi:guide
       position="35.601974,0"
       orientation="0,1"
       id="guide4172"
       inkscape:label=""
       inkscape:color="rgb(0,0,255)" />
  </sodipodi:namedview>
  <!-- Generator: sketchtool 47.1 (45422) - http://www.bohemiancoding.com/sketch -->
  <title
     id="title4">65356CBE-DFF7-43DF-A182-967DAE328B9A</title>
  <desc
     id="desc6">Created with sketchtool.</desc>
  <defs
     id="defs8" />
  <g
     style="fill:#00027f;fill-rule:evenodd;stroke:none;stroke-width:1"
     transform="matrix(0.97827496,0,0,0.97827496,2.6203131,0.01683)"
     id="Typo">
    <path
       inkscape:connector-curvature="0"
       id="Fill-2"
       d="m 31.5605,37.3257 c -0.912,0.992 -2.104,1.488 -3.576,1.488 l -2.208,0 0,-10.44 2.208,0 c 1.488,0 2.68,0.488 3.576,1.464 0.864,0.96 1.296,2.216 1.296,3.768 0,1.52 -0.432,2.76 -1.296,3.72 m 2.16,-9.408 c -1.456,-1.408 -3.368,-2.112 -5.736,-2.112 l -5.064,0 0,15.576 5.064,0 c 2.368,0 4.28,-0.704 5.736,-2.112 1.472,-1.408 2.208,-3.296 2.208,-5.664 0,-2.384 -0.736,-4.28 -2.208,-5.688" />
    <polygon
       points="4.345,25.8062 1.248,25.8062 1.248,41.3822 4.08,41.3822 4.08,29.9582 11.16,41.3822 14.041,41.3822 14.041,25.8062 11.209,25.8062 11.209,36.8462 "
       id="Fill-4" />
    <path
       inkscape:connector-curvature="0"
       id="Fill-6"
       d="m 8.833,13.6099 c -0.561,0.328 -1.169,0.492 -1.824,0.492 -0.656,0 -1.185,-0.056 -1.584,-0.168 -1.328,-0.336 -1.992,-1.144 -1.992,-2.424 l -2.808,0 c 0.063,1.696 0.695,3.008 1.896,3.936 1.072,0.848 2.471,1.272 4.2,1.272 1.952,0 3.456,-0.412 4.511,-1.236 1.057,-0.824 1.584,-1.94 1.584,-3.348 0,-1.024 -0.311,-1.876 -0.935,-2.556 -0.624,-0.68 -1.513,-1.244 -2.664,-1.692 L 5.833,6.5659 C 5.209,6.3419 4.748,6.0979 4.452,5.8339 4.156,5.5699 4.009,5.2059 4.009,4.7419 c 0,-0.464 0.227,-0.86 0.683,-1.188 0.456,-0.328 1.092,-0.492 1.909,-0.492 1.664,0 2.624,0.68 2.879,2.04 l 2.809,0 C 12.145,3.6459 11.597,2.5139 10.645,1.7059 9.692,0.8979 8.341,0.4939 6.589,0.4939 c -1.752,0 -3.141,0.392 -4.164,1.176 -1.008,0.752 -1.513,1.776 -1.513,3.072 0,1.104 0.32,1.968 0.961,2.592 0.64,0.624 1.56,1.168 2.76,1.632 l 3.096,1.224 c 0.688,0.256 1.183,0.532 1.488,0.828 0.303,0.296 0.456,0.72 0.456,1.272 0,0.552 -0.28,0.992 -0.84,1.32" />
    <polygon
       points="23.425,0.8057 23.425,16.3817 33.457,16.3817 33.457,13.9097 26.257,13.9097 26.257,9.8057 33.001,9.8057 33.001,7.3577 26.257,7.3577 26.257,3.2537 33.457,3.2537 33.457,0.8057 "
       id="Fill-8" />
  </g>
</svg>
